<svg xmlns="http://www.w3.org/2000/svg" viewBox="0 0 116.55 105.96"><defs><style>.cls-1{fill:#253161;}.cls-2{fill:#c2e2f5;}</style></defs><title>Ativo 3</title><g id="Camada_2" data-name="Camada 2"><g id="Ecommerce"><path id="ic_shopping_cart_24px" data-name="ic shopping cart 24px" class="cls-1" d="M49.65,54.63A4.31,4.31,0,1,0,54,58.94,4.31,4.31,0,0,0,49.65,54.63ZM36.72,20.14v4.31H41l7.76,16.36-2.91,5.28a4.18,4.18,0,0,0-.54,2.07,4.32,4.32,0,0,0,4.31,4.31H75.52V48.16h-25a.53.53,0,0,1-.54-.53h0l.06-.26L52,43.85H68.09a4.3,4.3,0,0,0,3.77-2.22l7.72-14a2.08,2.08,0,0,0,.25-1,2.15,2.15,0,0,0-2.15-2.15H45.79l-2-4.31ZM71.21,54.63a4.31,4.31,0,1,0,4.31,4.31A4.31,4.31,0,0,0,71.21,54.63Z"/><path id="ic_desktop_windows_24px" data-name="ic desktop windows 24px" class="cls-2" d="M106,0H10.6A10.63,10.63,0,0,0,0,10.6V74.17a10.64,10.64,0,0,0,10.6,10.6H47.68V95.36H37.09V106H79.47V95.36H68.87V84.77H106a10.63,10.63,0,0,0,10.59-10.6V10.6A10.62,10.62,0,0,0,106,0Zm0,74.17H10.6V10.6H106Z"/></g></g></svg>