<svg xmlns="http://www.w3.org/2000/svg" viewBox="0 0 138.38 107.43"><defs><style>.cls-1{fill:#c2e2f5;}.cls-2{fill:#253161;}</style></defs><title>Ativo 2</title><g id="Camada_2" data-name="Camada 2"><g id="Logistica"><path class="cls-1" d="M52.73,68.32a64.47,64.47,0,0,1-7.15,13.54,64.22,64.22,0,0,1-8.71-18H52.73V54.69H34.91a67.67,67.67,0,0,1-.73-9.11,68,68,0,0,1,.73-9.12H56.24A64.82,64.82,0,0,1,57,45.58c0,.43,0,.86-.06,1.3a9,9,0,0,1,4.94-1.48h4.23a74.33,74.33,0,0,0-.63-8.94H80.86A36.08,36.08,0,0,1,82,45.4h9.12A45.58,45.58,0,0,0,45.58,0h0a45.58,45.58,0,0,0,.09,91.16,46.18,46.18,0,0,0,7.11-.62Zm24.39-41H63.67a71,71,0,0,0-6.29-16.23A36.57,36.57,0,0,1,77.12,27.35ZM45.58,9.3a64.06,64.06,0,0,1,8.7,18.05H36.87A64.09,64.09,0,0,1,45.58,9.3ZM10.3,54.69a35.65,35.65,0,0,1,0-18.23H25.71a75.27,75.27,0,0,0-.64,9.12,75,75,0,0,0,.64,9.11ZM14,63.81H27.48A71.63,71.63,0,0,0,33.77,80,36.4,36.4,0,0,1,14,63.81ZM27.48,27.35H14A36.4,36.4,0,0,1,33.77,11.12,71.45,71.45,0,0,0,27.48,27.35Z"/><path id="ic_local_shipping_24px" data-name="ic local shipping 24px" class="cls-2" d="M127.53,64H116.68V49.56H66.05a7.28,7.28,0,0,0-7.24,7.24V96.58h7.24a10.85,10.85,0,1,0,21.7,0h21.7a10.85,10.85,0,0,0,21.7,0h7.23V78.5ZM76.9,102a5.43,5.43,0,1,1,5.42-5.43A5.43,5.43,0,0,1,76.9,102Zm48.82-32.55,7.09,9H116.68v-9ZM120.3,102a5.43,5.43,0,1,1,5.42-5.43A5.43,5.43,0,0,1,120.3,102Z"/></g></g></svg>