<svg xmlns="http://www.w3.org/2000/svg" viewBox="0 0 115.25 105.37"><defs><style>.cls-1{fill:#253161;}.cls-2{fill:#c2e2f5;}</style></defs><title>Ativo 5</title><g id="Camada_2" data-name="Camada 2"><g id="Atendimento"><path id="ic_textsms_24px" data-name="ic textsms 24px" class="cls-1" d="M56,39.51h52.68a6.58,6.58,0,0,1,6.55,6.59l0,59.27L102.08,92.2H56a6.61,6.61,0,0,1-6.59-6.59V46.1A6.61,6.61,0,0,1,56,39.51ZM92.2,69.15h6.58V62.56H92.2ZM79,69.15h6.58V62.56H79Zm-13.17,0h6.58V62.56H65.86Z"/><path class="cls-2" d="M46.13,42.81a6.59,6.59,0,0,1,6.55-6.59H65.86V6.59A6.62,6.62,0,0,0,59.27,0H6.59A6.59,6.59,0,0,0,0,6.59L0,65.86,13.17,52.68h33Zm-33-29.64H52.68v6.59H13.17Zm0,9.88H52.68v6.58H13.17Zm0,16.46V32.93H39.51v6.58Z"/></g></g></svg>