<svg xmlns="http://www.w3.org/2000/svg" viewBox="0 0 125.41 105.92"><defs><style>.cls-1{fill:#c2e2f5;}.cls-2{fill:#614595;}.cls-3{fill:#253161;}</style></defs><title>Ativo 6</title><g id="Camada_2" data-name="Camada 2"><g id="Marketing"><g id="Grupo_2" data-name="Grupo 2"><g id="ic_rss_feed_24px" data-name="ic rss feed 24px"><path id="Caminho_6" data-name="Caminho 6" class="cls-1" d="M65.21,29.67l-4,6.68A35.13,35.13,0,0,1,73.05,84.59l6.69,4A43,43,0,0,0,65.21,29.67ZM57.13,43l-4,6.68a19.52,19.52,0,0,1,6.6,26.79l6.68,4a27.3,27.3,0,0,0-9.23-37.5Z"/></g><path id="ic_highlight_24px" data-name="ic highlight 24px" class="cls-2" d="M45.43,39.46l-25.17,20L0,64.45l6.41,26,20.26-5,31.57,6Z"/><rect id="Retângulo_2" data-name="Retângulo 2" class="cls-2" x="10.81" y="82.9" width="11.2" height="22.39" rx="1.87" transform="translate(-22.03 6.66) rotate(-13.84)"/></g><path id="ic_markunread_24px" data-name="ic markunread 24px" class="cls-3" d="M97.64,0H75.13a2.82,2.82,0,0,0-2.8,2.81V19.7a2.82,2.82,0,0,0,2.81,2.81H97.64a2.82,2.82,0,0,0,2.81-2.81V2.81A2.81,2.81,0,0,0,97.64,0Zm0,5.63-11.26,7-11.25-7V2.81l11.25,7,11.26-7Z"/><path id="ic_smartphone_24px" data-name="ic smartphone 24px" class="cls-3" d="M122.59,27.79H108.53a2.82,2.82,0,0,0-2.82,2.81V55.92a2.83,2.83,0,0,0,2.82,2.81h14.06a2.83,2.83,0,0,0,2.82-2.81V30.59A2.82,2.82,0,0,0,122.59,27.79Zm0,25.31H108.53V33.41h14.06Z"/><path id="ic_message_24px" data-name="ic message 24px" class="cls-3" d="M117,77.63H94.46a2.82,2.82,0,0,0-2.8,2.82l0,25.32,5.63-5.63H117a2.81,2.81,0,0,0,2.81-2.81V80.45A2.83,2.83,0,0,0,117,77.63Zm-2.82,16.89H97.27V91.7h16.88Zm0-4.22H97.27V87.48h16.88Zm0-4.22H97.27V83.26h16.88Z"/></g></g></svg>