<svg xmlns="http://www.w3.org/2000/svg" viewBox="0 0 83.88 105.96"><defs><style>.cls-1{fill:#c2e2f5;}.cls-2{fill:#253161;}.cls-3{fill:#614595;}</style></defs><title>Ativo 4</title><g id="Camada_2" data-name="Camada 2"><g id="Financeiro"><path id="ic_tablet_mac_24px" data-name="ic tablet mac 24px" class="cls-1" d="M72.85,0H11A11,11,0,0,0,0,11V94.92a11,11,0,0,0,11,11H72.85a11,11,0,0,0,11-11V11A11,11,0,0,0,72.85,0ZM41.94,101.54a6.62,6.62,0,1,1,6.62-6.62A6.62,6.62,0,0,1,41.94,101.54ZM75.05,83.88H8.83V13.24H75.05Z"/><path id="ic_monetization_on_24px" data-name="ic monetization on 24px" class="cls-2" d="M55.76,48.74A14.23,14.23,0,1,0,70,63,14.24,14.24,0,0,0,55.76,48.74Zm2,22.9v2.72H54V71.61a5.3,5.3,0,0,1-4.65-4.84h2.79c.14,1.49,1.16,2.66,3.77,2.66,2.79,0,3.41-1.39,3.41-2.26,0-1.18-.62-2.29-3.8-3-3.52-.85-5.94-2.3-5.94-5.22,0-2.45,2-4,4.42-4.57V51.59h3.8v2.77a5,5,0,0,1,4.06,4.83H59c-.07-1.58-.91-2.67-3.16-2.67s-3.42,1-3.42,2.34c0,1.19.93,2,3.8,2.72s6,2,6,5.56C62.2,69.74,60.25,71.17,57.77,71.64Z"/><path id="ic_trending_up_24px" data-name="ic trending up 24px" class="cls-3" d="M41.53,18.2l4.17,4.17-8.88,8.87L29.55,24,16.08,37.46,18.64,40,29.55,29.11l7.27,7.28L48.28,25l4.16,4.16V18.2Z"/><rect class="cls-3" x="21.53" y="46.41" width="7.27" height="14.55"/><path class="cls-3" d="M54.26,46.72V31.86H47V48.74A14.15,14.15,0,0,1,54.26,46.72Z"/><path class="cls-3" d="M41.53,41H34.26V61H40a14.2,14.2,0,0,1,1.5-6.34Z"/></g></g></svg>