<svg xmlns="http://www.w3.org/2000/svg" viewBox="0 0 78.13 107.43"><defs><style>.cls-1{fill:#c2e2f5;}.cls-2{fill:#253161;}</style></defs><g id="Camada_2" data-name="Camada 2"><g id="Developer_Builder" data-name="Developer Builder"><path id="ic_developer_mode_24px" data-name="ic developer mode 24px" class="cls-1" d="M14.65,19.53H63.48V29.3h9.77V9.77A9.77,9.77,0,0,0,63.48.05L14.65,0A9.8,9.8,0,0,0,4.88,9.77V29.3h9.77ZM63.48,87.9H14.65V78.13H4.88V97.67a9.79,9.79,0,0,0,9.77,9.76H63.48a9.79,9.79,0,0,0,9.77-9.76V78.13H63.48Z"/><polygon class="cls-2" points="55.72 76.13 78.13 53.72 55.72 31.3 48.83 38.24 64.31 53.72 48.83 69.2 55.72 76.13"/><polygon class="cls-2" points="29.3 69.2 13.82 53.72 29.3 38.24 22.41 31.3 0 53.72 22.41 76.13 29.3 69.2"/></g></g></svg>