<svg xmlns="http://www.w3.org/2000/svg" viewBox="0 0 140.43 93.62"><defs><style>.cls-1{fill:#c2e2f5;}.cls-2{fill:#253161;}</style></defs><g id="Camada_2" data-name="Camada 2"><g id="Developer_Admin" data-name="Developer Admin"><path id="ic_laptop_24px" data-name="ic laptop 24px" class="cls-1" d="M117,81.91a11.72,11.72,0,0,0,11.7-11.7V11.7A11.73,11.73,0,0,0,117,0H23.4A11.74,11.74,0,0,0,11.7,11.7V70.21a11.73,11.73,0,0,0,11.7,11.7H0V93.62H140.43V81.91ZM23.4,11.7H117V70.21H23.4Z"/><path id="ic_dashboard_24px" data-name="ic dashboard 24px" class="cls-2" d="M44.46,43.82H67.35V15.2H44.46Zm0,22.89H67.35V49.54H44.46Zm28.61,0H96V38.1H73.07Zm0-51.51V32.37H96V15.2Z"/></g></g></svg>