<svg xmlns="http://www.w3.org/2000/svg" viewBox="0 0 106.26 106.5"><defs><style>.cls-1{fill:#c2e2f5;}.cls-2{fill:#253161;}</style></defs><g id="Camada_2" data-name="Camada 2"><g id="Professional_Services" data-name="Professional Services"><path class="cls-1" d="M42.15,74.74a31.11,31.11,0,0,1,9.57-22.48l-1.62-2.8a1.45,1.45,0,0,0-1.76-.64l-7.17,2.89a21,21,0,0,0-4.87-2.83l-1.09-7.63A1.41,1.41,0,0,0,33.79,40H22.27a1.4,1.4,0,0,0-1.41,1.21l-1.1,7.63a22.18,22.18,0,0,0-4.87,2.83L7.72,48.82A1.41,1.41,0,0,0,6,49.46L.2,59.43a1.4,1.4,0,0,0,.35,1.84L6.62,66a20.05,20.05,0,0,0,0,5.65L.55,76.43A1.42,1.42,0,0,0,.2,78.27L6,88.24a1.45,1.45,0,0,0,1.76.63L14.89,86a20.61,20.61,0,0,0,4.87,2.82l1.1,7.64a1.4,1.4,0,0,0,1.41,1.21H33.79a1.41,1.41,0,0,0,1.42-1.21l1.09-7.64A21.91,21.91,0,0,0,41.17,86l3.69,1.48A31,31,0,0,1,42.15,74.74ZM28,78.93A10.09,10.09,0,1,1,38.12,68.85,10.08,10.08,0,0,1,28,78.93Z"/><path id="ic_account_circle_24px" data-name="ic account circle 24px" class="cls-2" d="M75,44.06A31.22,31.22,0,1,1,43.82,75.28,31.22,31.22,0,0,1,75,44.06Zm0,9.37a9.37,9.37,0,1,0,9.37,9.36A9.36,9.36,0,0,0,75,53.43Zm0,44.33A22.46,22.46,0,0,0,93.77,87.7c-.09-6.21-12.48-9.61-18.73-9.61s-18.63,3.4-18.73,9.61A22.49,22.49,0,0,0,75,97.76Z"/><path class="cls-1" d="M43.76,48.84,50.93,46a21.06,21.06,0,0,0,4.45,2.64,31.23,31.23,0,0,1,32.37-3.17l4.15-7.19a1.43,1.43,0,0,0-.34-1.84l-6.08-4.75a22.31,22.31,0,0,0,.2-2.83,22.15,22.15,0,0,0-.2-2.82l6.08-4.76a1.43,1.43,0,0,0,.34-1.84l-5.76-10a1.44,1.44,0,0,0-1.76-.63l-7.17,2.88a20.61,20.61,0,0,0-4.87-2.82L71.25,1.21A1.41,1.41,0,0,0,69.83,0H58.31A1.4,1.4,0,0,0,56.9,1.21L55.8,8.85a22.14,22.14,0,0,0-4.87,2.82L43.76,8.79A1.41,1.41,0,0,0,42,9.42l-5.76,10a1.4,1.4,0,0,0,.35,1.84L42.66,26a24.15,24.15,0,0,0-.2,2.82,24.32,24.32,0,0,0,.2,2.83l-6.07,4.75a1.43,1.43,0,0,0-.35,1.84L42,48.2A1.45,1.45,0,0,0,43.76,48.84ZM64.07,18.73A10.09,10.09,0,1,1,54,28.81,10.08,10.08,0,0,1,64.07,18.73Z"/></g></g></svg>