<svg xmlns="http://www.w3.org/2000/svg" viewBox="0 0 110.91 30.66"><defs><style>.cls-1{fill:#fff;}</style></defs><title>Ativo 2</title><g id="Camada_2" data-name="Camada 2"><g id="Camada_1-2" data-name="Camada 1"><path class="cls-1" d="M29.58,0V24.86A5.48,5.48,0,0,0,35,30.59h2V27.5H35.3a2.66,2.66,0,0,1-2.65-2.77V0Z"/><path class="cls-1" d="M43.27,8.76V22.85c0,10.33,18.17,10.33,18.17,0V8.76H58.33v13.7c0,7-12,7-12,0V8.76Z"/><circle class="cls-1" cx="2.07" cy="28.51" r="2.07"/><circle class="cls-1" cx="108.84" cy="28.52" r="2.07"/><path class="cls-1" d="M8.3,27.5h1.85c1.75,0,2.49-1.8,2.49-2.77V5.94A6.35,6.35,0,0,1,18.81,0h4.55V3H19.23a3.59,3.59,0,0,0-3.57,3.31V8.76h7.7v2.72H15.7V24.55c0,3.19-1.94,6-5.1,6H8.3Z"/><path class="cls-1" d="M100.8,27.51a2.47,2.47,0,0,1-2.52-2.77V0H95.21V9.12c-8.63-3.07-13.7-.83-15.55,6.18-2.63,10,4.9,19.37,17,13.57a4.92,4.92,0,0,0,3.84,1.73h2.09V27.51ZM95.21,26c-2.57,2.66-12.59,4.22-12.59-6.92,0-7.21,3.46-10.59,12.59-6.92Z"/><path class="cls-1" d="M67.63,8.76l0,16.1A5.48,5.48,0,0,0,73,30.59H75V27.5H73.3a2.66,2.66,0,0,1-2.65-2.77v-16Z"/><circle class="cls-1" cx="69.21" cy="4.24" r="2.07"/></g></g></svg>